<svg id="Layer_1" data-name="Layer 1" xmlns="http://www.w3.org/2000/svg" viewBox="0 0 1236 1236"><ellipse cx="618" cy="1139.35" rx="555.1" ry="29.15" fill="#e6e6e6"/><path d="M136.39,709.76h918V862.58h-918Z" fill="#5f7682"/><path d="M129.36,1136.82H114.69V709.76h43.4l-28.73,427.06Z" fill="#768c99"/><path d="M947.59,1139h14.67V712h-43.4L947.59,1139Zm-701.75-2.2H231.18V709.76h43.39l-28.73,427.06Z" fill="#5f7682"/><path d="M1061.38,1136.82h14.67V709.76h-43.4l28.73,427.06Z" fill="#768c99"/><path d="M86.55,666.4H1106.36v57.1H86.55Z" fill="#5f7682"/><path d="M63.3,648.13H1129.61v36.54H63.3Z" fill="#8e9da8"/><path d="M63.3,648.13H252.87v36.54H63.3Z" fill="#768c99"/><path d="M425.11,137.54H765.42V637.2H425.11Z" fill="#96bbcc"/><path d="M767.42,126.31a9.61,9.61,0,0,0-2-.19H425.11a11.52,11.52,0,0,0-11.42,11.42V637.19a11.52,11.52,0,0,0,11.42,11.42H765.42a11.39,11.39,0,0,0,11.42-11.38V137.54A11.54,11.54,0,0,0,767.42,126.31ZM754,625.77H436.53V149H754Z" fill="#5f7682"/><path d="M514.67,126.11,510,137.53,505.38,149,436.53,318.13l-22.84,56.12V236.71l11.42-28.05,11.42-28.06L449.41,149l4.65-11.43,4.65-11.42Zm202.47,0-4.65,11.42L707.84,149,513.78,625.77l-4.64,11.42-4.65,11.42H425.11a11.52,11.52,0,0,1-11.42-11.42V475.86l22.84-56.12L546.74,149l4.65-11.42L556,126.12Zm59.7,11.42v79.15l-11.42,28.06L754,272.8l-143.65,353-4.65,11.42-4.64,11.42H554.84l4.65-11.42,4.65-11.42L754,159.26l8.84-21.72,4.58-11.23a11.54,11.54,0,0,1,9.42,11.23Z" fill="#96bbcc" opacity="0.2" style="isolation:isolate"/><rect x="866.97" y="514.38" width="25.1" height="21.31" rx="9.47" fill="#518bbf"/><rect x="847.58" y="545.28" width="63.89" height="102.57" rx="9.47" fill="#e8eaa4"/><rect x="857.74" y="526.69" width="43.57" height="37.88" rx="9.47" fill="#e8eaa4"/><path d="M904,587c0,9.94-11,18-24.47,18s-24.47-8-24.47-18,11-18,24.47-18S904,577.05,904,587Z" fill="#fff"/><path d="M278.4,529.85h5.37v26.52H278.4Z" fill="#a55165"/><path d="M314.08,531.43a2.13,2.13,0,0,1-2.13,2.13H279a2.13,2.13,0,0,1-2.13-2.13h0A2.13,2.13,0,0,1,279,529.3h33a2.13,2.13,0,0,1,2.13,2.13h-.05Z" fill="#a55165"/><path d="M309.74,531.43h4.34v5.21h-4.34Z" fill="#a55165"/><rect x="260.65" y="542.79" width="40.65" height="34.51" rx="15.34" fill="#dda4b4"/><rect x="254.35" y="562.39" width="53.24" height="85.47" rx="7.89" fill="#a55165"/><path d="M254.35,596.57h53.24v19.15H254.35Z" fill="#fff"/><path d="M833.11,582.78,830.35,604l-1.71,13.09-3.13,24.07h-17.4l-8.8-58.41Z" fill="#e8eaa4"/><path d="M807.22,637.2v7.88a2.77,2.77,0,0,0,2.77,2.77h13.34a2.77,2.77,0,0,0,2.77-2.77h0V637.2Z" fill="#a55165"/><path d="M830.35,604l-1.71,13.09a19.32,19.32,0,0,1-5.13.67c-6.84,0-12.4-3.36-12.4-7.5s5.56-7.5,12.4-7.5A18.58,18.58,0,0,1,830.35,604Z" fill="#fff"/><path d="M369,567.47l-3.42,26.25-2.1,16.17-3.87,29.74h-21.5l-10.87-72.16Z" fill="#31a2c9"/><path d="M337,634.7v9.72a3.44,3.44,0,0,0,3.43,3.43H356.9a3.44,3.44,0,0,0,3.43-3.43V634.7Z" fill="#a55165"/><path d="M365.53,593.72l-2.1,16.17a23.84,23.84,0,0,1-6.34.83c-8.46,0-15.32-4.16-15.32-9.27s6.86-9.27,15.32-9.27a23,23,0,0,1,8.44,1.54Z" fill="#fff"/><path d="M694.85,560.24h12.72v6.23H694.85Z" fill="#414a54"/><path d="M734.74,648.61H702.21a30.71,30.71,0,1,1,32.53,0Z" fill="#518bbf"/><path d="M706,592.33h25.1a4.94,4.94,0,0,1,4.94,4.94H701a4.94,4.94,0,0,1,4.94-4.94Z" fill="#fff"/><path d="M706.58,587.8a4.53,4.53,0,0,0,4.53,4.53h14.78a4.53,4.53,0,0,0,4.53-4.53h0a4.52,4.52,0,0,0-4.52-4.52H711.11a4.53,4.53,0,0,0-4.53,4.52Z" fill="#fff"/><path d="M712.28,568.27h12.45v15H712.28Z" fill="#414a54"/><path d="M692.72,559.26a5.64,5.64,0,0,1,3.93-1.59h3V569h-3a5.65,5.65,0,0,1-3.93-1.58Z" fill="#fff"/><path d="M702.47,558.91c3.11-3,9.12-5.07,16-5.07,10.11,0,18.3,4.38,18.3,9.78s-8.19,9.78-18.3,9.78c-6.91,0-12.92-2-16-5.07Z" fill="#518bbf"/><path d="M723.1,583.28h2.37v9H723.1Zm-3.85,0h2.36v9h-2.36Zm-3.86,0h2.37v9h-2.37Zm-3.85,0h2.36v9h-2.36Z" fill="#fff" opacity="0.5" style="isolation:isolate"/><path d="M696.05,558.52h3.58v.81h-3.58Zm0,1.73h3.58v.81h-3.58Zm0,1.73h3.58v.81h-3.58Zm0,1.74h3.58v.8h-3.58Zm0,1.73h3.58v.81h-3.58Zm0,1.73h3.58v.8h-3.58Z" fill="#414a54"/><path d="M705.66,562.79l9.73,3.25c-.62.38-15.74,28.67-21.25,29.37C693.8,593.27,709.54,575.58,705.66,562.79Z" fill="#518bbf"/><path d="M204.37,548.2l-1-.12,1.35-22,3.07.34-3.4,21.81Zm3.9.42-1-.11,1.36-22,3.06.34-3.4,21.81Zm3.9.42-1-.11,1.36-22,3.06.33Zm3.89.43-1-.11,1.36-22,3.06.33-3.41,21.82Zm3.91.42-1-.11,1.36-22,3.06.34L220,549.89Zm3.9.42-1-.11,1.37-22,3.06.33Zm3.9.42-1-.11,1.36-22,3.07.34-3.41,21.81Z" fill="#414a54"/><path d="M202.68,550.25l.27-2.52,25.12,2.73L227.8,553Z" fill="#fff"/><path d="M201,550.1a14.46,14.46,0,0,0,28.73,3.11Z" fill="#414a54"/><path d="M208.19,624.51l-1.92-.2,5.07-61.84,5.18.56-8.33,61.48Zm-17.67-69.86-.72-2.93,12.19-3-.4-1.64-12.19,3-.73-2.94,12.2-3-.4-1.65-12.2,3-.72-2.93,12.19-3-.4-1.64-12.2,3-.72-2.93,12.2-3-.41-1.65-12.19,3-.73-2.93,12.21-3-.41-1.65-12.2,3-.72-2.93,12.2-3-.41-1.65-12.2,3-.72-2.94,12.19-3-.39-1.64-12.2,3-.72-2.93,12.2-3-.41-1.64-12.2,3-.72-2.94,12.2-3-.4-1.66-12.2,3-.72-2.94,12.19-3-.45-1.83-10,2.46a7.54,7.54,0,0,0-5.53,9.12h0l25.34,103.09,1.18-.3-11.9-56.51a7.54,7.54,0,0,1,5.5-9.12l6.94-1.71-.25-1Z" fill="#414a54"/><path d="M225.35,580.78,222,649H187.81l-5.38-68.17Z" fill="#5f7682"/><path d="M203.89,580.78V649H187.81l-5.38-68.17Z" fill="#8e9da8"/><path d="M814.39,417c-22.15-40.17-53.28-73.47-78.7-114.09l-22.1,12.47c14.34,80.57,55.14,163.77,89.57,158.46,5.43-20.76,14.77-34,11.23-56.84Z" fill="#ed805f"/><path d="M870.11,273.53c-24.79,33.85-61.92,116.85-95.07,158.4,12.32,12.6,14.33,31.44,28.61,41.95,15.63-12.23,42-33.3,52.27-45.82C998.28,253.84,895.13,239.38,870.11,273.53Z" fill="#ed805f"/><path d="M875,385.43l9,10.23c103.58-145.08,6.19-154.72-19.36-121.16-10.57,13.88-29.72,40.78-42.45,65.34C826.86,344.37,864.38,373.33,875,385.43Z" fill="#c1bfbf"/><path d="M520,1137.71H727.14l-84.3-23H601.66Z" fill="#5f7682"/><path d="M520,1137.71H653.19l-32.31-23H601.66Z" fill="#8e9da8"/><path d="M717.68,755.12c-10.48-5.66-42.79.23-54,1.14l-77.27,6c-40.52,3.88-87.26,7-124.22,24.84-7.31,3.53-22,8.64-23.57,19.45-7.74,54.18,288.54,14.84,288.54,14.84.56-14.69,3.51-59.24-9.48-66.27Z" fill="#3a4f64"/><path d="M502.7,1102.36c-3.28-.94-7-.68-10.41-1.94-2,9.36-5.19,26.76-14,32.09l24.93,2.38C503.26,1123.89,503.26,1113.28,502.7,1102.36Z" fill="#f48e69"/><path d="M451.42,1139l2.84-3.91.75-.93A42.44,42.44,0,0,1,476.89,1120a52.83,52.83,0,0,1,13.59-1.8c10-.09,12.25,2.81,13.77,8.79l.32,1.39c.64,2.85,1.27,6.32,2.46,10.39Z" fill="#4f342c"/><path d="M455,1134.18a169.56,169.56,0,0,0,22.65-.62,156.54,156.54,0,0,0,26.93-4.55l-.34-2.07c-1.52-6-3.75-8.88-13.77-8.79a52.83,52.83,0,0,0-13.59,1.8A42.36,42.36,0,0,0,455,1134.18Z" fill="#63443d"/><path d="M492.64,799.43s-52.26-6.6-54,7.11c-5,39.93,54.85,258,44.24,302.13,6.63,2.23,17.07,2,23.23,0,21.42-74.57,31.71-127.41,21.79-201.85-3.14-23.55-24.87-23.46-29.67-45.61-4.5-20.89-5.61-41.54-5.59-61.78Z" fill="#3a4f64"/><path d="M555,1100.78c-3.3-.85-7-.49-10.46-1.66-1.78,9.41-4.48,26.89-13.11,32.44l25,1.73c-.35-11-.62-21.61-1.43-32.51Z" fill="#f48e69"/><path d="M504.66,1138.77l2.74-4,.73-1a42.39,42.39,0,0,1,21.49-14.8,54,54,0,0,1,13.54-2.15c10-.35,12.32,2.49,14,8.43l.36,1.37c.71,2.84,1.43,6.29,2.73,10.32Z" fill="#4f342c"/><path d="M508.13,1133.84a167.59,167.59,0,0,0,22.62-1.21,155.65,155.65,0,0,0,26.8-5.25l-.39-2.06c-1.68-5.94-4-8.78-14-8.43a54,54,0,0,0-13.54,2.15A42.39,42.39,0,0,0,508.13,1133.84Z" fill="#63443d"/><path d="M545.33,797.21l-54.13,9.27c9.22,30.61,15.54,56.1,13.82,69.81-5,39.93,41.17,186,30.56,230.17,6.63,2.23,17.07,2,23.23,0,21.42-74.58,31.71-127.41,21.79-201.85-3.14-23.56-24.87-23.47-29.67-45.61-4.51-20.9-5.62-41.55-5.6-61.79Z" fill="#3a4f64"/><path d="M718.48,1001c-20.49,1.55-37.2-10.58-41.78-30.66-4.05-17.77,1.35-43-22.48-47.34-4.52-.83-2.6-7.7,1.89-6.87,8.84,1.61,16.11,6.19,20.47,14.14s5,17.36,5.7,26.1c.8,10.19,2,19.93,8.94,28s17.18,10.31,27.26,9.55c4.58-.35,4.55,6.78,0,7.12Z" fill="#602b3b"/><path d="M675.36,996.74a7.71,7.71,0,0,0,7.71,7.71h52a7.71,7.71,0,0,0,7.72-7.7h0a7.71,7.71,0,0,0-7.68-7.74h-52a7.71,7.71,0,0,0-7.72,7.7v0Z" fill="#602b3b"/><path d="M425.69,717.42c12.91-4.48,48.63,5.3,48.63,5.3-5.7,3.76-10.9,7.68-17.28,10.41a69,69,0,0,1-16.63,5c-5.29.71-12.59-.71-16.67,3.78-3.83,4.2-.74,10.62-8.29,7.7-5.52-2.13-5.76-7.89-5.76-12.8,0-11.9,5.43-15.73,16-19.39Z" fill="#f48e69"/><path d="M603,924.57h41.18v190.19H603Z" fill="#5f7682"/><path d="M603,924.57h19.22v190.19H603Z" fill="#8e9da8"/><path d="M594.65,951,570.89,848.55h146.5L692.18,951Z" fill="#7f3b4e"/><path d="M541.2,951,517.44,848.55H632.36L634.08,951Z" fill="#a55165"/><path d="M453.25,848.55H765.67v41.83H453.25Z" fill="#602b3b"/><path d="M514.09,846.46c0,13.27,7.2,24,16.08,24H823.61c8.88,0,16.08-10.76,16.08-24v-5.21c0-13.27-7.2-24-16.08-24H530.17c-8.88,0-16.08,10.75-16.08,24Z" fill="#602b3b"/><path d="M429.53,846.46c0,13.27,7.64,24,17.06,24h150.1c9.42,0,17-10.76,17-24v-5.21c0-13.27-7.63-24-17-24H446.59c-9.42,0-17.06,10.75-17.06,24Z" fill="#a55165"/><path d="M583.18,545.92V793.76a14.4,14.4,0,0,0,14.46,14.34H822a14.4,14.4,0,0,0,14.47-14.33h0V545.92A14.42,14.42,0,0,0,822,531.58H597.65a14.42,14.42,0,0,0-14.47,14.34Z" fill="#f06562"/><path d="M624,545.92V793.76a14.41,14.41,0,0,0,14.48,14.34H825.22a14.42,14.42,0,0,0,14.47-14.34V545.92a14.42,14.42,0,0,0-14.47-14.34H638.49A14.42,14.42,0,0,0,624,545.92Z" fill="#a55165"/><path d="M701.9,878.19c0,6.73,4.12,12.18,9.22,12.18h41.67c5.09,0,9.22-5.45,9.22-12.18V775c0-6.74-4.13-12.19-9.22-12.19H711.12c-5.1,0-9.22,5.45-9.22,12.19Z" fill="#602b3b"/><path d="M716.47,878.19c0,6.73,4.12,12.18,9.21,12.18h41.68c5.09,0,9.22-5.45,9.22-12.18V775c0-6.74-4.13-12.19-9.22-12.19H725.68c-5.09,0-9.21,5.45-9.21,12.19Z" fill="#a55165"/><path d="M416.31,738.54a13.38,13.38,0,0,0,13.37,13.39H574.07V910.66A14.31,14.31,0,0,0,588.35,925h.27A14.34,14.34,0,0,0,603,910.68V738.54a13.41,13.41,0,0,0-13.39-13.39H429.69a13.38,13.38,0,0,0-13.38,13.38Z" fill="#7f3b4e"/><path d="M416.31,738.54a13.38,13.38,0,0,0,13.37,13.39H574.07V910.66a14.36,14.36,0,0,0,10.79,13.91,14.36,14.36,0,0,0,10.81-13.91V738.54a13.38,13.38,0,0,0-13.39-13.39H429.69a13.38,13.38,0,0,0-13.38,13.38Z" fill="#a55165"/><path d="M627.06,373.25a41.4,41.4,0,0,1-6.87,8.45,106.3,106.3,0,0,1-9.93,7.5c4.49,9,11.91,14,21.75,14.87l.76-41.11c-2,1.53-3.92,7.51-5.71,10.29Zm151,132.41c-36.88-53.37-49.91-45.27-58.63-86.41-4.5-21.18-39.54,4.2-46.45,5.48-5.19,34.12-2.37,50.53-35.2,66-23.28,11-46.88,18.21-53.65,46.37-7.14,29.7-6.37,63-6.37,93.71l-1.28,88.35c0,19.42-1.65,38.4-2.84,57.55,9.76,4.66,19,10.54,28.82,15,14.53,6.62,29.4,12.44,44.37,18,20.48,7.61,41.43,13.73,62.29,20.17,15.73-2.33,31.24-6.46,46.5-9.83,21-4.63,17.78-19.33,19.23-38.69,3.34-44.74,11.47-88.3,15.38-132.86,3-34.27-9.3-67-4.25-100.74,2.12-14.17.87-29.38-7.92-42.1Z" fill="#f48e69"/><path d="M713.7,400.34c-3.86,6.54-7.84,12.58-13.57,17.8-12.08,11-44.7,36.44-60,30.06C623,441,623.42,394.59,628.7,385.44c.22-.37.43-.75.63-1.13,1.54-2.81-.32-5.63-1.3-7.93l-.09-.22a5.9,5.9,0,0,1-.36-1.1,2.5,2.5,0,0,1-.09-.77v-1.94c0-2.64-.07-4.59-.22-6.51v-.47l-.07-.79c-.15-1.77-.3-3.62-.38-6.05a21.23,21.23,0,0,1,.82-5c.09-.41.17-.82.23-1.21a2.78,2.78,0,0,1,.08-.49c2.56-16.14,15-22.25,21.13-36.21Z" fill="#f48e69"/><path d="M646,364.49c-.21,2.21-1.36,3.78-2.67,5.52a18.5,18.5,0,0,0-2.2,3,1.56,1.56,0,0,1-.09.17l-.53.17a16.51,16.51,0,0,1-5.09.55,16.18,16.18,0,0,1-2.08-.16h-.66a.86.86,0,0,1-.39-.06,2,2,0,0,1-.34-.05l-1-.19-.88-.19-.45-.13-.77-.22-.31-.1-.13-.05a3.93,3.93,0,0,1-.54-.2l-.23-.08-.22-6.51v-.47l-.07-.79-.38-6.05a21.23,21.23,0,0,1,.82-5l.23-1.21a2.78,2.78,0,0,1,.08-.49h4.5A19.32,19.32,0,0,1,643,355.37c2.58,1.88,3.28,6,3,9.12Z" fill="#e86a43"/><path d="M640.91,373.15h-.12v.05Zm-.17,0Z" fill="#e86a43"/><path d="M669.91,449.22C668.25,452.51,654,470,642,469.82c-.08-3.53-.59-7.16-.58-10.38,0-4.95-1.22-9.49-1.71-14.28,0,5,.28,10.09-.88,15a38.51,38.51,0,0,1-2.85,7.77c-7.88-5.33-13.23-22.95-10.39-65.16,35.71.27,38.48-13,40.79-14.55l5.93,5c-2.61,3.78,4.49,42.24-2.4,56Zm100-81.87c-12.72,41.35-37.94,42.57-46,65.08-6,16.78-41.27-29.44-41.94-34.53-1.38-10.61-5.12-11.44-14.73-11.94,2.7-8.73,4.07-18.8,2.26-27.95-1.93-9.82-6-21.58-15-25.57-25.67-11.49-28.3-30.4-25-46.24,2-9.92,6.4-18.64,8.82-23.58C659.66,288.07,797.23,278.47,769.86,367.35Z" fill="#3a2019"/><path d="M626.54,402.53c-2.57-.38-5.47-1.51-8.21-.89-3.79.87-3.2,3.84-4.84,6.58-2.74,4.57-7.43,6.69-12.28,8.3,2.12-.22,4.33,1.17,6.35,1.77a30.36,30.36,0,0,0,11.07.78c3.27-.31,6-1.72,8.76-3.41,2.57-1.57,5.61-2.75,8-4.58l2.29-8.57c-3.75,0-7.44.57-11.14,0Z" fill="#3a2019"/><path d="M641.28,373.87s-.26.15-.71.36l-.82.39a8.7,8.7,0,0,1-1.1.44l-1.31.45c-.48.16-1,.26-1.51.39a13.43,13.43,0,0,1-1.63.32l-1.72.22-1.72.07a15.53,15.53,0,0,1-1.67-.05l-1.06-.08-.09-.22a5.9,5.9,0,0,1-.36-1.1h0c.46,0,1-.07,1.49-.08a10.31,10.31,0,0,0,1.6-.1l1.65-.11,1.63-.16c.55,0,1.08-.13,1.6-.17l1.49-.16,1.36-.15,2.05-.22Z" fill="#e86a43"/><path d="M641.15,373.09l-.15.05-.53.17a16.51,16.51,0,0,1-5.09.55,16.18,16.18,0,0,1-2.08-.16h-.66a.86.86,0,0,1-.39-.06,2,2,0,0,1-.34-.05l-1-.19-.88-.19-.45-.13-.77-.22-.31-.1-.13-.05a3.93,3.93,0,0,1-.54-.2l-.23-.08-.22-6.51v-.47c1.3-3.95,3.64-8.08,7.49-6.34,2.86,1.29,4.42,9,6,13.26a2.78,2.78,0,0,0,.16.4c0,.09.08.18.11.28v0Z" fill="#fff"/><path d="M636.57,368.27v1.06a13.16,13.16,0,0,1-1.23,4.51,19.26,19.26,0,0,1-2.42-.2h-.65a2,2,0,0,1-.34-.06l-1-.19-.88-.19-.45-.13-.77-.22-.31-.1a13.56,13.56,0,0,1-.27-4.4c.4-4.38,2.6-7.69,4.91-7.41,1.36.17,2.44,1.53,3,3.52h0a12.56,12.56,0,0,1,.41,3.81Z" fill="#77524f"/><path d="M633.1,369.28c0,.43,0,.85-.06,1.28a8.68,8.68,0,0,1-.81,3h0a2,2,0,0,1-.34-.06l-1-.19-.88-.19-.45-.13-.77-.22a9.19,9.19,0,0,1-.09-2.77c.26-2.69,1.46-4.73,2.68-4.58.64.09,1.17.79,1.47,1.84a8.1,8.1,0,0,1,.25,2Z" fill="#23100c"/><path d="M638.68,367.76c-1.56-.33-7.43,0-7.43,0a11.25,11.25,0,0,0,5,2.88Z" fill="#fff"/><path d="M641,372.69a2.78,2.78,0,0,1-.16-.4c-1.66-4-3.56-8.53-6.42-9.82-3.72-1.69-5.85.58-7.08,3.37v-.47l-.07-.79c1.24-4.59,3.65-10.1,7.82-8.22,1,.48,1.86,2.08,2.58,4.16,1.33,3.87,2.22,9.37,3.33,12.17Z" fill="#542316"/><path d="M651.9,358.11c1.06.9-12-1.63-12-1.63s.32-2.59-.2-3.4c-.6.5-1,2.62-1.31,3.37-3.71-.59-6.78-1.41-16.08-4,.29-1.67,3.9-6.79,5.69-7.49C641.3,348.17,648.3,355,651.9,358.11Z" fill="#3a2019"/><path d="M673.72,368.33c-5.94,1.7-9.49,20.52-9.49,20.52-.52,8.83-4.45,17,6.48,13.7,7.75-2.36,17.13-10.89,19-18.86a12.79,12.79,0,0,0-16-15.36Z" fill="#f48e69"/><path d="M687.69,378.61a10.18,10.18,0,0,0-.66-1.77,14.61,14.61,0,0,0-2.07-3.2,12,12,0,0,0-3-2.54,7.23,7.23,0,0,0-3.89-1.08,7.1,7.1,0,0,0-3.91,1.41,12.68,12.68,0,0,0-2.81,2.9,30.09,30.09,0,0,0-3.58,6.92l1.52,1.86.26.11a2.87,2.87,0,0,1,.49.26,4.72,4.72,0,0,1,1,.78,2,2,0,0,1,.53.79h0s-.05.06-.06,0,0,0-.07,0l-.28.11a6,6,0,0,1-1.1.23l-1.42.09H667l.56,4.72.35-.07.39-.06.87-.14,1.86-.41a8.51,8.51,0,0,0,2-.82,4.91,4.91,0,0,0,1.09-.83,3.91,3.91,0,0,0,.9-1.34,3.7,3.7,0,0,0,.25-1.58,3.45,3.45,0,0,0-.43-1.57,5.6,5.6,0,0,0-1.56-1.76,7.73,7.73,0,0,0-1.8-1l-.43-.16a24.64,24.64,0,0,1,2.17-5,11,11,0,0,1,2.13-2.68,5.58,5.58,0,0,1,2.91-1.39,5.87,5.87,0,0,1,3.29.61,10.9,10.9,0,0,1,2.91,2.08,14.69,14.69,0,0,1,2.28,2.87,10.15,10.15,0,0,1,.8,1.66,3.65,3.65,0,0,1,.26,1.82,3.74,3.74,0,0,0-.09-1.82Z" fill="#e86a43"/><path d="M451.92,725.15s64.26,1,74.3,6.86c19.67,11.5,45.74,85.3,61.5,101.53C618.47,865.22,750.1,902,859.84,869.69c5-37.55-1.38-145.66-20.15-245.18-15.32-81.24-42.57-142.84-109.82-183.19-7.51-4.5-40.37,9.21-58.28,3C663.11,459,626,489,611.71,499c-18.93,13.35-29.41,29.41-37.11,49.9-1.6,4.29-3.71,8.62-4.51,13.45-17.28,103-93.87,141.08-125,154.51-9.24,4-2.37,8.25,6.83,8.25Z" fill="#3d313f"/><path d="M987.61,1100.85c-3.34-.92-7.17-.62-10.61-1.87-2,9.55-5,27.3-13.9,32.81l25.41,2.18c-.12-11.2-.22-22-.9-33.12Z" fill="#f48e69"/><path d="M935.77,1138.68l2.85-4,.76-1A43.09,43.09,0,0,1,961.51,1119a54.3,54.3,0,0,1,13.82-2c10.2-.2,12.5,2.73,14.1,8.81l.35,1.4c.67,2.9,1.35,6.43,2.6,10.56Z" fill="#4f342c"/><path d="M939.38,1133.72a173.18,173.18,0,0,0,23-.86A158.32,158.32,0,0,0,989.8,1128l-.37-2.1c-1.6-6.08-3.9-9-14.1-8.81a54.3,54.3,0,0,0-13.82,2A43.15,43.15,0,0,0,939.38,1133.72Z" fill="#63443d"/><path d="M1018.92,883.61c9.36,75.88-1.9,140.51-24.43,216.22-6.3,2-16.09,7.05-22.81,4.72,2.61-12.84,3.43-32.62,3-48.76-.86-31.95-6.52-67.13-12.2-92.68-8.59-38.69-25.71-68.47-20.21-109.08,5.57-41.06-59-187-61.28-263l46.25-1.22,22.69-.6c15.37,9.21,35.45-19,42.22-1.54,9.7,25.06-9.07,77.56-7.71,89.82,5.55,49.37-6.79,103.4,4.74,159.38C993.83,859.48,1016,859.6,1018.92,883.61Z" fill="#231e25"/><path d="M1083,1102c-3.33-1-7.16-.73-10.59-2-2.12,9.52-5.42,27.22-14.39,32.59l25.38,2.57c.06-11.26.12-22.07-.4-33.16Z" fill="#f48e69"/><path d="M1030.6,1139l2.92-4,.77-1a43.13,43.13,0,0,1,22.35-14.37,53.87,53.87,0,0,1,13.84-1.75c10.21,0,12.46,2.92,14,9l.32,1.41c.63,2.91,1.26,6.45,2.44,10.6Z" fill="#4f342c"/><path d="M1034.29,1134.11a170.68,170.68,0,0,0,23.06-.51,157.36,157.36,0,0,0,27.44-4.48l-.33-2.11c-1.52-6.1-3.77-9.06-14-9a53.87,53.87,0,0,0-13.84,1.75,43.15,43.15,0,0,0-22.33,14.35Z" fill="#63443d"/><path d="M1100.43,886.53c14.55,75.07,5.27,138.38-12,215.46-6.15,2.41-13.36,5.62-20.23,3.75,1.73-13,1.47-28.32-.09-44.4-3-31.82-11.11-66.52-18.52-91.62-11.23-38-30.35-66.54-27.65-107.43,2.73-41.35-71.68-182.55-79.17-258.16l46-4.4,22.6-2.15c16,8.13,34.07-21.39,42-4.43,11.39,24.33-3.74,78-1.53,90.13,8.92,48.88.31,103.63,15.65,158.68,6.26,22.22,28.34,20.83,32.94,44.57Z" fill="#231e25"/><path d="M1060.06,606c-2.56,2.47-9.78,2.49-13.81,3.62-21.32,6-60-3.53-81.09,1.83-23.79,6-29.59-24-29.59-24-.24-50.65-38.38-165.17-59.44-207.2l-1.33-2.77a271.21,271.21,0,0,1-11.68-31.75.39.39,0,0,0-.09-.3c-6.38-21.05-11.25-44.71-8-56.51a16.81,16.81,0,0,1,3.55-5.85,92.34,92.34,0,0,1,13-11.84c2.66-2.1,5.54-4.25,8.55-6.42l5.36-3.77q2.19-1.51,4.44-3l5.84-3.87c22.47-14.74,46-27.88,46.75-28.31-2.43,1.86,5.39,2.58,10.13,4,2.1.63,10.17,2.06,20.33,3.82l4.77.85,4.35.75,4.77.85,1.33.23,12.39,2.21c11.53,2.1,21.63,4.12,25.5,5.43,18,6.06,18.74,86.56,4.69,120.6C1020,390.69,1050.63,566.43,1060.06,606Z" fill="#d3cfcf"/><path d="M952,232.56c-.12,31.38-22.31,52.67-33.07,57.05-18.07,7.34-33-45.94-30.3-47.59.37-.23.74-.46,1.12-.67,5-3,10.23-6.25,10.36-9.35a83.58,83.58,0,0,0-.68-15.49,50,50,0,0,0-1.47-6.85c-1.62-5.64-4.22-10.4-8.11-13.68l31.81-39.08c.9,1.4,4,11.82,8,24.52.11.32.21.65.31,1,2.35,7.36,5,15.43,7.79,22.92q.76,2.08,1.53,4.08c4.36,11.34,8.88,20.7,12.71,23.14Z" fill="#f48e69"/><path d="M952,232.55c-.12,31.39-22.31,52.67-33.07,57.05-18.07,7.35-33-45.94-30.3-47.59l.09-.06c3.85,15.29,15.68,44.17,29.3,38.65,9.84-4,29.24-22.16,32.57-49.23A8,8,0,0,0,952,232.55Z" fill="#fff"/><path d="M937.74,205.31c-8.44,25.51-27.23,45-32.29,45.15-2.17,0-10.82-4.93-15.74-9.11,5-3,10.23-6.25,10.36-9.35a83.58,83.58,0,0,0-.68-15.49,50,50,0,0,0-1.47-6.85l32-27.27c2.38,7.36,5.08,15.43,7.82,22.92Z" fill="#e86a43"/><path d="M834.43,175.89c4.9.76,9.6,15.4,9.6,15.4,1.3,7,5.25,13.13-3.79,11.57-6.42-1.11-14.74-7-17.06-13.14a10.26,10.26,0,0,1,11.25-13.83Z" fill="#f48e69"/><path d="M824.32,185.47a9.37,9.37,0,0,1,.35-1.48,11.83,11.83,0,0,1,1.33-2.75,9.59,9.59,0,0,1,2.09-2.31,5.41,5.41,0,0,1,6.24-.52,10.68,10.68,0,0,1,2.54,2,24.57,24.57,0,0,1,3.53,5.16l-1,1.64a.32.32,0,0,0-.2.11,3,3,0,0,0-.37.25,3.92,3.92,0,0,0-.69.72,2,2,0,0,0-.35.69h.11l.24.06a4.4,4.4,0,0,0,.89.08,6.62,6.62,0,0,0,1.15-.07l.63-.07h.72v3.82H840.3c-.51,0-1-.06-1.53-.13a7.21,7.21,0,0,1-1.71-.46,4.24,4.24,0,0,1-.95-.54,3.15,3.15,0,0,1-1.2-2.23,2.83,2.83,0,0,1,.18-1.29,4.7,4.7,0,0,1,1.08-1.56,6.12,6.12,0,0,1,1.32-1l.33-.17a20,20,0,0,0-2.23-3.79,8.68,8.68,0,0,0-2-1.92,4.44,4.44,0,0,0-2.46-.82,4.79,4.79,0,0,0-2.56.81,8.91,8.91,0,0,0-2.11,2,11.39,11.39,0,0,0-1.53,2.52,7,7,0,0,0-.48,1.4,3,3,0,0,0,0,1.47,2.89,2.89,0,0,1-.13-1.62Z" fill="#e86a43"/><path d="M824.92,95.65c-7.08,4.62-21.49,12.93-22.66,21.28-2.16,15.42,21.91,43,25.37,49.26-1.28-3.72,9-56.92,20.26-59.69Z" fill="#3a2019"/><path d="M929.15,179.93C924,163,902.3,111,889.31,101.94c-14.48-10.13-36.8-14.09-52.7-3.83-20.61,13.29-12.46,57.68-11.25,62.43.52,2,2.94,6.42,5.57,14.57,1.21,3.74.88,12.26,2.35,16.7,9.41,28.44,36,48.76,36,59.78,0,6.26,12.25,5.46,23.93,1.83,38.79-12.06,41.23-56.14,35.94-73.49Z" fill="#f48e69"/><path d="M838.09,185.28l1-.45,1.18-.46,1.51-.6,1.74-.71,1.93-.82,2-.88,2.1-1,2.07-1,2-1,1.89-.94c.59-.33,1.17-.59,1.7-.84l2.59-1.26,1-.45-.75.83-.89.9a12.75,12.75,0,0,1-1.22,1.1l-1.52,1.22c-.52.42-1.16.82-1.79,1.24a19.24,19.24,0,0,1-2,1.2l-2.13,1.11c-.72.36-1.49.63-2.23.92a33.86,33.86,0,0,1-4.33,1.29l-2,.33c-.3,0-.58.11-.85.13h-2a3.64,3.64,0,0,1-1,.14Zm-.47-37.81a22.91,22.91,0,0,0-10.81,6.22c1.84,3.74,8,23.27,9.14,28.21l22.93-7.73C859.76,171.62,851.55,144,837.62,147.47Z" fill="#e86a43"/><path d="M835.89,181.77a9.88,9.88,0,0,0,3.3-.08l.91-.13,4.07-.86,3.3-.95a42.75,42.75,0,0,0,10.93-5c.31-.2.61-.41.9-.64l-.43-.3c-4.46-3.15-10.66-10.48-15.66-10-9.45.87-8.35,12.26-7.63,16.44C835.75,181.19,835.89,181.77,835.89,181.77Z" fill="#fff"/><path d="M836.6,177.8a8,8,0,0,0,2.59,3.89l.91-.13,4.07-.86,3.3-.95a8.21,8.21,0,0,0-.13-6.27,8,8,0,0,0-2.09-2.87,5.46,5.46,0,0,0-5.22-1.27C837,170.28,835.44,174.08,836.6,177.8Z" fill="#77524f"/><path d="M837.92,178.78a4.7,4.7,0,0,0,2.18,2.78l4.07-.86a4.54,4.54,0,0,0,.52-4,5.24,5.24,0,0,0-.44-1,4.7,4.7,0,0,0-1.27-1.43,3.31,3.31,0,0,0-3-.61C838.15,174.19,837.21,176.5,837.92,178.78Z" fill="#23100c"/><path d="M845.79,170c-1.42,1.52-4.49,7.28-4.49,7.28a25.8,25.8,0,0,0,7.11-4.75Z" fill="#fff"/><path d="M858.87,173.84c-4.47-3.14-9.59-6.77-14.6-6.31-7.29.67-8.94,5.4-9,9.44v.11a18.77,18.77,0,0,0,.28,3.17c-.28-1.16-4.45-18.26,6.74-19.29,1.76-.16,3.75,1,5.8,2.62,3.84,3.1,7.85,8.1,10.78,10.26Z" fill="#542316"/><path d="M904.84,161.3l-1.07.27-1.22.36-1.55.47-1.81.51-2,.55L895,164l-2.23.55-2.25.5-2.2.46-2.06.43-1.86.38-2.81.61-1.08.28,1.1.19c.35,0,.77.11,1.26.15a14.89,14.89,0,0,0,1.64.12h2a37.13,37.13,0,0,0,4.47-.41l2.37-.45,2.32-.65a19.22,19.22,0,0,0,2.2-.79,18.6,18.6,0,0,0,2-.87l1.73-.94.75-.43.64-.45,1-.74.82-.67Zm-25.1-29.72a23,23,0,0,0-10.39,6.89c2.08,3.62,9.45,22.72,10.92,27.57l22.39-9.17c.72-2.6-9.24-29.68-22.92-25.29Z" fill="#e86a43"/><path d="M880.32,165.75a5.81,5.81,0,0,0,1.09-.07,31.64,31.64,0,0,0,5.29-1,52.69,52.69,0,0,0,6.12-2c5.16-2,9.5-4.55,10.44-5.84,0,0-.25-.54-.71-1.37-2.08-3.69-8.43-13.21-16.3-7.91-1.77,1.2-2.82,3.62-3.55,6.41-.3,1.19-.56,2.4-.77,3.61-.51,2.77-.88,5.54-1.47,7.63C880.41,165.42,880.36,165.59,880.32,165.75Z" fill="#fff"/><path d="M882.42,160.13a7.59,7.59,0,0,0,4.28,4.59,52.69,52.69,0,0,0,6.12-2,7.54,7.54,0,0,0,.5-6.5,2.67,2.67,0,0,0-.14-.36,7.81,7.81,0,0,0-1.67-2.57,5.72,5.72,0,0,0-6-1.76A5.09,5.09,0,0,0,882.7,154a7.06,7.06,0,0,0-.77,3.61A8.66,8.66,0,0,0,882.42,160.13Z" fill="#77524f"/><path d="M891.18,158.5c.8,2.24,0,4.61-1.87,5.27s-4-.62-4.81-2.87,0-4.61,1.87-5.27S890.36,156.25,891.18,158.5Z" fill="#23100c"/><path d="M893.12,151.47c-1.56,1.36-5.24,6.75-5.24,6.75a26,26,0,0,0,7.58-4Z" fill="#fff"/><path d="M880.46,165.25c1.46-5.26,3.15-11.31,7.31-14.12,6.07-4.09,10.34-1.47,12.92,1.63l.07.09a18.85,18.85,0,0,1,1.79,2.64c-.51-1.08-8.1-17-17.42-10.68-1.47,1-2.3,3.11-2.84,5.7-1,4.81-.93,11.21-1.83,14.74Z" fill="#542316"/><path d="M819.92,159.09c-.8,1,10.4-3.37,10.4-3.37s-.7-2.25-.37-3.05c.62.35,1.34,2.16,1.71,2.78,3.2-1.12,5.8-2.34,13.63-6.15-.52-1.43-4.55-5.4-6.26-5.74-11.29,5-16.4,12.23-19.11,15.53Zm70.86-33.38c1.21.35-10.48,3.11-10.48,3.11s-.69-2.25-1.42-2.73c-.31.64.12,2.54.17,3.27-3.28.88-6.11,1.35-14.73,2.64-.38-1.47.7-7,1.91-8.27C878.38,121.45,886.68,124.52,890.78,125.71Zm-26.86,75.4L880,191.57a255.87,255.87,0,0,1,33.56-6.94c3.15,5.64,14,37.33,12.53,42.68-2.53,9-19.19,39-19.19,39l-7.53-10.6s5.45,10.31.12,18.76c-6.7-3.85-11.73-10.91-13.28-15.11-1.36,1.2-.55,9.19,2,12.08-4.26-1.54-28.62-22.79-37.79-49a125,125,0,0,1,13.5-21.33Z" fill="#3a2019"/><path d="M865.31,195.93c-2.28-.24-10-3.26-10.22,2.08-.23,6.15,22.2,9,27.22-9.11C878.38,193.37,871,196.53,865.31,195.93Z" fill="#e86a43"/><path d="M851.81,150.6c1.92,2.65,19.21,32.19,5.86,45.34l9.19.64C870.53,186.48,864.91,162,851.81,150.6Z" fill="#e86a43"/><path d="M909.38,192.8a42.2,42.2,0,0,1-.47,10.47l-.51,2.54-.48,1.8-.59,1.86h0c-2.68,7.72-8,14.71-17.24,17.56A42.78,42.78,0,0,1,879,229.11a26.25,26.25,0,0,1-4.77-.23c-9.82-1.44-12.74-8.52-14.65-9.63l2.81-1.37,6-3c8.61-4.38,23-11.88,41-22.08Z" fill="#682c19"/><path d="M909.38,192.8a42.2,42.2,0,0,1-.47,10.47l-.51,2.54C896.69,213,879,222,874.09,222.94c-4.26.86-8.46-2-11.67-5.06l6-3c8.58-4.38,22.94-11.88,41-22.08Z" fill="#fff"/><path d="M908.91,203.27l-.51,2.54C896.69,213,879,222,874.09,222.94c-4.26.86-8.46-2-11.67-5.06l6-3c2,1.84,4.18,3.33,5.26,3.24,4.09-.37,21.41-7.27,35.23-14.85Z" fill="#efefef"/><path d="M907.92,207.61l-.59,1.86h0c-2.68,7.72-8,14.71-17.24,17.56A42.78,42.78,0,0,1,879,229.11a26.25,26.25,0,0,1-4.77-.23,7.66,7.66,0,0,1,2-3.9c3.36-3.27,21.31-13.14,31.69-17.37Z" fill="#fff"/><path d="M907.92,207.61l-.59,1.86h0c-12,6-25.67,15.3-27.88,18a3.05,3.05,0,0,0-.42,1.59,26.25,26.25,0,0,1-4.77-.23,7.66,7.66,0,0,1,2-3.9c3.33-3.22,21.28-13.09,31.66-17.32Z" fill="#efefef"/><path d="M890.48,228.23h0a44.67,44.67,0,0,1-11.39,2.13,26.12,26.12,0,0,1-5-.25c-7.81-1.14-11.49-5.6-13.69-8.27a10.06,10.06,0,0,0-1.4-1.52l-2-1.19,2.14-1s1-.46,2.79-1.36l6-3c8.74-4.43,22.93-11.86,40.9-22l1.71-1,.17,2a43.66,43.66,0,0,1-.49,10.77c-.16.88-.33,1.75-.53,2.62-.15.63-.32,1.25-.5,1.87l-.47,1.52h0l-.13.4c-2.28,6.46-7.25,14.93-18.06,18.28Zm-28.71-8.64.55.66c2.1,2.54,5.26,6.39,12.12,7.39a24.59,24.59,0,0,0,4.54.21,42.26,42.26,0,0,0,10.74-2h0c9.68-3,14.21-10.6,16.32-16.54l.08-.23.57-1.8c.18-.61.32-1.17.46-1.75.19-.82.35-1.64.5-2.46a41.39,41.39,0,0,0,.57-8.17c-17.17,9.67-30.75,16.77-39.22,21.1l-6,3Z" fill="#e86a43"/><path d="M891,68.09c-84.64-5.41-107.6,28.12-114,41.32-9.12,18.8,26.42,33.37,39.29,40.68C836,141,789.07,140.19,840,118.36c9.94-4.27,38.87-5.5,49.4,1.55,5.2,3.47,25.3,26.69,27.17,32.91a49.84,49.84,0,0,1,9.34-4.56c-1.51-5.78.38-9.88-2-25.33C918.75,89.45,916.15,69.7,891,68.09Z" fill="#3a2019"/><path d="M883.73,78.78c1.45,1.84,3.35,3.84,4.26,6a64.63,64.63,0,0,0-8.33,1c3.45,1.17,5.5,5.91,8.16,8.51-5.36-5.73-48,8.46-54.7,13.66,0,0,56.82-11.92,65.38,15a32.08,32.08,0,0,0-1.32-12.2c3,.14,7.08,1.91,9.7,3.51.92-7.06.67-12.67-2-19.47a9.63,9.63,0,0,1,7.54-.26c-.56-11.29-19.8-17-28.69-15.75Z" fill="#512e25"/><path d="M916,142.7c-4,4.57,3,22.06,3,22.06,4.26,7.59,5.36,16.48,12.66,7.91,5.17-6.08,8.41-18.13,5.77-25.76A12.59,12.59,0,0,0,916,142.7Z" fill="#f48e69"/><path d="M933.07,143.8a10.18,10.18,0,0,0-1.49-1.12,14.78,14.78,0,0,0-3.41-1.55,11.54,11.54,0,0,0-3.78-.55,6.67,6.67,0,0,0-6.3,4.42,12.71,12.71,0,0,0-.79,3.9,30.19,30.19,0,0,0,.71,7.64l2.26.74a1,1,0,0,0,.27-.05l.54-.06a5,5,0,0,1,1.22.14,1.86,1.86,0,0,1,.86.38c.08.08,0,0,0,.05v.06s0,0-.07,0l-.17.24a5.82,5.82,0,0,1-.79.78,11.3,11.3,0,0,1-1.13.83l-.64.44-.36.23-.38.27,3,3.62.26-.24.29-.27.64-.57a16.69,16.69,0,0,0,1.33-1.33,8.45,8.45,0,0,0,1.25-1.77,5.17,5.17,0,0,0,.47-1.26,3.72,3.72,0,0,0-.6-3,3.59,3.59,0,0,0-1.19-1.07,5.77,5.77,0,0,0-2.23-.63,8.37,8.37,0,0,0-2,.1l-.44.09a24.64,24.64,0,0,1-.88-5.32,10.8,10.8,0,0,1,.35-3.35,5.32,5.32,0,0,1,1.67-2.7,5.83,5.83,0,0,1,3.05-1.24,10.42,10.42,0,0,1,3.52.17,14.25,14.25,0,0,1,3.42,1.17,10.41,10.41,0,0,1,1.54,1,3.48,3.48,0,0,1,1.18,1.37,3.57,3.57,0,0,0-1.18-1.56Z" fill="#e86a43"/><path d="M1045.67,607.3c-4.89-18.81-11-40.65,8.68-53.49-9.36-.64-27.09,4.82-33.08-3-4-5.25-29.87-204.92-28.59-222.11-37.13,18.69-88,16.92-129.56,17l35.16,489.07c62,6,125.25,13.07,188.07,8.48C1076.4,822.13,1052.19,632.4,1045.67,607.3Z" fill="#681831"/><path d="M991.92,329.07c.28,12.68,1,25.35,1.85,37.87l-12.53.87c-.77-11.07-1.41-22.26-1.75-33.49-1-33.1.5-66.51,8.67-98l12.39,2.21c-7.61,28.87-9.33,59.73-8.63,90.54ZM880.69,376.46l-5.89,1-6.48,1.16c-1.88-10.63-3.64-21.37-5.15-32.17v-.07a7.28,7.28,0,0,0-.14-1c-2.84-20.71-4.68-41.64-4.45-62.36a92.34,92.34,0,0,1,13-11.84c-1.34,24.53.73,49.67,4.21,74.5C877.2,356.07,878.89,366.32,880.69,376.46Zm191,213.33c-9.67,0-16.83-8.48-18-16.45a27,27,0,0,1-.22-3.24c-.06-2.18-.1-3.61-1.68-5.51a7.69,7.69,0,0,0-2.25-1.62,8.6,8.6,0,0,1-3.58-3.1l-2-3.45-.92.51c-4.1-7.39,2.86-23.65,10.33-28.29,4.4-2.73,8.74-1.66,11.9,2.92,4.19,6.07-2.54,12.6-9,17.85,7-1.36,15.64-1.59,20.33.66,2.77,1.33,4.16,3.52,3.92,6.18a6.05,6.05,0,0,1-2.8,4.55c-5,3.41-16.07,2.51-23.56,1.32.08.09.17.18.25.28,2.34,2.81,2.41,5.25,2.47,7.6a24.83,24.83,0,0,0,.2,2.86c.92,6.62,6.84,13.65,14.82,13.5l.07,3.43Zm-27.43-33.51,3.71,1.08c4.86,1.42,22.47,4.29,27.88.61a2.67,2.67,0,0,0,1.32-2c.07-.82-.09-1.87-2-2.78-6.53-3.14-23.72-.14-26.37,2.42l-2.39-2.46c1.23-1.2,3-2.56,5-4.14,6-4.7,14.13-11.14,11.13-15.47-2.13-3.09-4.44-3.71-7.27-2-6.51,4-12.07,18.45-9.14,23.72Z" fill="#681831"/><path d="M966.21,452.85c-44.4-11.49-90-11.74-137-21.18l-6.13,24.63c68.41,44.93,156.9,72.43,176.69,43.76-11.3-18.19-14.47-34.06-33.56-47.21Z" fill="#f48e69"/><path d="M981.33,274.49c-9.53,44.79-10.83,143-25.07,199.3,16.55,6.06,26,23.2,43.55,26.27,9.66-19.46,25.83-52.76,30.35-69.85C1093,192.36,991,229.29,981.33,274.49Z" fill="#f48e69"/><path d="M1035.17,369.79l12.49,5.43c31.75-175.42-60.44-142.57-69.23-101.32-3.63,17.1-9.43,49.57-10.49,77.21,6.15,2.1,52.45,12.28,67.23,18.68Z" fill="#d3cfcf"/><path d="M738.13,406.57,752,386.29l6.08,4.17-13.89,20.28Z" fill="#728387"/><path d="M814,444.92l.92-1.34,7.2,4.92-.92,1.34Z" fill="#1d363d"/><path d="M808.91,442.06l1.84-2.68,7.2,4.93L816.1,447Z" fill="#fff"/><path d="M773.48,402.73l1.34-3.26-4.82-2-4.79-3.28-1,1.47,4.37,3-.72,1.75,5.62,2.31Z" fill="#403a51"/><path d="M808.92,428.29a9.77,9.77,0,1,1-13.58,2.55h0A9.78,9.78,0,0,1,808.92,428.29Z" fill="#fff"/><path d="M808.88,428.36l-11,16-50.7-31.57,13.89-20.28Z" fill="#403a51"/><path d="M741.17,408.65l13.89-20.28,6.08,4.17-13.89,20.27Z" fill="#a5a5a5"/><path d="M804.39,434.91a1.72,1.72,0,1,1-1.94,2.84,1.73,1.73,0,0,1-.45-2.39h0A1.72,1.72,0,0,1,804.39,434.91Z" fill="#3f5051"/><path d="M804,435.55a.92.92,0,1,1-1.28.24.9.9,0,0,1,1.26-.25Z" fill="#fff"/><path d="M729.85,400.79l.76-1.11,11.25,7.76-.76,1.11Zm3.4-4.85-.75,1.1,11.28,7.73.75-1.11-11.28-7.72Zm1.9-2.65.75-1.11,11.31,7.7-.76,1.11Zm3.36-5-.76,1.1L749,397.09l.76-1.1Zm2.62-3.83-.75,1.11,11.27,7.72.76-1.11Zm2.63-3.83-.76,1.1,11.28,7.73.76-1.11-11.28-7.72Z" fill="#728387"/><path d="M743.88,407.24a.83.83,0,1,1-1.24.56A1,1,0,0,1,743.88,407.24Zm12.25-17a1,1,0,0,1-.12,1.35,1,1,0,0,1-1.33-.1v0a1,1,0,1,1,1.46-1.23Z" fill="#1d363d"/><path d="M821.08,428l-14.68-6.71c-3.84-1.66-7.17-4.8-11.25-5.6-4.61-.89-10.62.92-15.16,1.84-6.39,1.3-28.31,3.33-22,12.6,1.18,1.75,3.49,2.12,4.59,3.83,1.47,2.26.9,5,2.31,7.34,2.37,3.87,7.13,5,10.17,7.95,4.5,4.35,6.48,5.33,12.54,6.95,5.17,1.38,8.48.15,13.9.23s10.73,1.06,16.17,1.08c5.8,0,11-1.69,16.35-2.32l3.4-19.79C836.84,433.12,824.72,429.63,821.08,428Z" fill="#f48e69"/></svg>