<svg xmlns="http://www.w3.org/2000/svg" viewBox="0 0 512 512"><g id="Layer_2" data-name="Layer 2"><path d="M384.27,199.29c0,66-62.06,119.31-109.31,163.58l-2.06,1.92-1.65,1.56c-5.35,5-10.47,10-15.25,14.77-4.84-4.85-9.92-9.75-15.16-14.72l-2-1.9-1.68-1.58C188.31,317,127.73,265.36,127.73,199.29A128.35,128.35,0,0,1,218.59,76.57a68.22,68.22,0,0,1,6.61,13.8c14.23,43.45-47.7,63.22-4.08,118-2.15-31.11-4.18-37.63,12.14-64.08,12.22-19.78,17.73-37.83,5.85-60.1a71.13,71.13,0,0,0-7.49-10.85,128,128,0,0,1,15.91-2c15.93,19.68,20.21,34.29,3.07,65C234.82,164.52,225,189.75,236,222.15c4.84,14.24,10.67,21.38,22.15,30.31-6.06-33.21-17.8-44.55.8-80.74,11.84-23.05,25.45-38.91,21.91-67.21C279,89.78,273.89,79.15,266,71.4a129,129,0,0,1,19.09,2.94q1.68,2.09,3.17,4.29c45.83,67.91-55.58,97.13-14.76,160.58,3.87-38.79,5.75-36.85,29-67.26C320,149.22,329,127.77,317.15,99a63.87,63.87,0,0,0-11-17.83,128.13,128.13,0,0,1,78.17,118.12Z" fill="#d7a547" fill-rule="evenodd"/><path d="M218.63,398.63a48.22,48.22,0,0,1-.79,5.63,45.62,45.62,0,1,1,.79-5.63Z" fill="#d7a547" fill-opacity="0" stroke="#d7a547" stroke-miterlimit="10" stroke-width="8"/><path d="M240.84,366.4l-27.5,56.32-2.84-1.44a45.39,45.39,0,0,0,7.34-17,48.22,48.22,0,0,0,.79-5.63l18.51-35.71,1.68,1.58Z" fill="#d7a547"/><path d="M329.43,184.93,258.15,331l-2.21,4.52-15.1,30.93-2-1.9-1.68-1.58L253.71,331l2.2-4.26Z" fill="#fff"/><path d="M301.67,420.48l-2.83,1.44-27.59-55.57,1.65-1.56,2.06-1.92,18.43,35a45.67,45.67,0,0,0,8.28,22.62Z" fill="#d7a547"/><path d="M258.15,331,275,362.87l-2.06,1.92-1.65,1.56-15.31-30.88L253.71,331l-72.5-146.09,74.7,141.82h0Z" fill="#fff"/><path d="M348.28,438.65a45.6,45.6,0,1,1,35.16-54A45.59,45.59,0,0,1,348.28,438.65Z" fill="#d7a547" fill-opacity="0" stroke="#d7a547" stroke-miterlimit="10" stroke-width="8"/></g></svg>