<svg id="Layer_1" data-name="Layer 1" xmlns="http://www.w3.org/2000/svg" viewBox="0 0 512 512"><path d="M241.87,9c118,0,206.16,74.29,223.9,176.7,16.57,95.73-34.19,191-122.9,230.43a27.22,27.22,0,0,0-9.86,7.23q-31.32,36.24-62.94,72.22c-8.7,9.93-19.55,9.85-28.27-.12q-32.19-36.81-64.24-73.73a18.2,18.2,0,0,0-6.31-4.68C101.47,385,58,331.22,46.15,255.5,33.57,175.33,60.26,107.9,122.88,55.94,161.23,24.12,206.27,9.36,241.87,9Z" style="fill:#f26a5a"/><path d="M271.24,261a38.49,38.49,0,0,0-21.64,9L235,97.22V97a4,4,0,0,0-.11-.6,8.49,8.49,0,0,0-.22-1c-.06-.17-.13-.31-.2-.47a7.35,7.35,0,0,0-.43-1l-.21-.31a8.55,8.55,0,0,0-.7-1l-.15-.15a9,9,0,0,0-1-1h0a8,8,0,0,0-4.36-1.75h-.05a5,5,0,0,0-.55,0,5.75,5.75,0,0,0-.83,0h-.07a7.13,7.13,0,0,0-1.38.25h-.2a6.87,6.87,0,0,0-1.32.53l-.17.07a10.45,10.45,0,0,0-1.13.74l-.19.14a9.88,9.88,0,0,0-.93.9c-.05.08-.13.13-.19.21a6.9,6.9,0,0,0-.7,1c-.06.1-.14.19-.2.3a9,9,0,0,0-.45,1c-.06.14-.13.28-.18.43-.1.33-.16.68-.23,1a5.67,5.67,0,0,0-.1.57v.19L204,270.05a38.69,38.69,0,1,0-37.15,66.28,19.13,19.13,0,0,1-7,8.55A8.2,8.2,0,0,0,168,359.11a36.13,36.13,0,0,0,15.57-21,39,39,0,0,0,34.15-35.19l9.12-107.75L236,302.92a38.94,38.94,0,0,0,38.54,35.47h0a26,26,0,0,0,3.29-.14A38.76,38.76,0,0,0,271.24,261Zm-94,60.85a22.33,22.33,0,0,1,1.86-44.59,15,15,0,0,1,1.9.08,22.33,22.33,0,1,1-3.76,44.51Zm119.5-24.13a22.32,22.32,0,1,1-24.13-20.38c.64-.06,1.27-.08,1.9-.08a22.45,22.45,0,0,1,22.24,20.5Z" style="fill:#fff"/><path d="M304.34,228a8.2,8.2,0,0,0,0,16.39h50.84V345.25a8.2,8.2,0,0,0,16.4,0V113.79A29.82,29.82,0,0,0,341.8,84H304.34a8.2,8.2,0,0,0,0,16.39H341.8a13.4,13.4,0,0,1,13.38,13.37H304.34a8.2,8.2,0,0,0,0,16.39h50.84v12.16H304.34a8.2,8.2,0,0,0,0,16.39h50.84v12.15H304.34a8.2,8.2,0,0,0,0,16.39h50.84v12.15H304.34a8.2,8.2,0,0,0,0,16.39h50.84V228Z" style="fill:#fff"/></svg>